<?xml version="1.0" encoding="UTF-8"?>
<svg width="48px" height="48px" viewBox="0 0 48 48" version="1.1" xmlns="http://www.w3.org/2000/svg" xmlns:xlink="http://www.w3.org/1999/xlink">
    <!-- Generator: Sketch 47.1 (45422) - http://www.bohemiancoding.com/sketch -->
    <title>Icon/48/_安全</title>
    <desc>Created with Sketch.</desc>
    <defs></defs>
    <g id="symbol" stroke="none" stroke-width="1" fill="none" fill-rule="evenodd">
        <g id="Icon/48/_安全">
            <g id="Icon/模板" stroke="#E41F2B" opacity="0">
                <g id="Group-2-Copy">
                    <g id="Group-100" opacity="0.15" stroke-width="0.5" stroke-linecap="square">
                        <path d="M0,0 L48,48 M48,0 L0,48" id="Diagonal"></path>
                        <path d="M2.49375,0 L2.49375,48 M14.90625,0 L14.90625,48 M24,0 L24,48 M33.09375,0 L33.09375,48 M45.49375,0 L45.49375,48" id="Vertical"></path>
                        <path d="M2.5,0 L2.5,48 M14.9125,0 L14.9125,48 M24.00625,0 L24.00625,48 M33.1,0 L33.1,48 M45.5,0 L45.5,48" id="Vertical" transform="translate(24.000000, 24.000000) rotate(-270.000000) translate(-24.000000, -24.000000) "></path>
                    </g>
                    <g id="Group" transform="translate(2.400000, 2.400000)" stroke-width="0.5" opacity="0.300000012">
                        <rect id="Rectangle-46-Copy-2" transform="translate(21.600000, 21.600000) rotate(-270.000000) translate(-21.600000, -21.600000) " x="5.85" y="0.25" width="31.5" height="42.7" rx="7.11111111"></rect>
                        <rect id="Rectangle-46-Copy-2" transform="translate(21.600000, 21.600000) rotate(-270.000000) translate(-21.600000, -21.600000) " x="3.05" y="3.05" width="37.1" height="37.1" rx="7.11111111"></rect>
                        <circle id="Oval-27" cx="21.6" cy="21.6" r="21.35"></circle>
                        <circle id="Oval-27" cx="21.6" cy="21.6" r="8.95"></circle>
                        <rect id="Rectangle-46-Copy" x="5.85" y="0.25" width="31.5" height="42.7" rx="7.11111111"></rect>
                    </g>
                </g>
            </g>
            <g id="Group" transform="translate(6.000000, 3.000000)">
                <path d="M34.9824991,9.64305312 L34.1264357,9.38996427 C29.2603017,7.93451183 23.8932162,5.20760477 18.0167563,1.21374925 C12.2526645,5.1660698 6.87361626,7.89308372 1.87055384,9.3908701 L1.01753659,9.64305552 L1.01753659,10.5779389 C1.01753659,10.7167881 1.01598634,10.8078136 1.01035676,10.9065261 C0.84524607,20.7146762 2.65993538,28.0116153 6.18231518,32.0249215 C9.64260662,35.9778708 13.575033,38.935879 17.9850069,40.9075058 C22.4366062,38.9092329 26.3740697,35.9535167 29.804563,32.0311234 C33.3331958,28.0114229 35.1547833,20.7151193 34.9896799,10.9428378 L34.9895373,10.9259451 C34.9895373,10.8194831 34.9888263,10.7857922 34.9824991,10.6721906 C34.9824991,10.4866658 34.9824991,10.4086299 34.9824991,10.0926239 L34.9824991,9.64305312 Z" id="Path" stroke="#333333" stroke-width="2"></path>
                <path d="M25.9953499,16.5226423 C25.9953499,16.4775304 25.9953499,16.4420853 25.9922218,16.4098625 C25.9922218,16.3991216 25.9922218,16.1359687 25.9922218,15.6204039 L25.2946626,15.414178 C23.1112711,14.7611293 20.6818049,13.5119589 18.0062641,11.6666667 C15.384943,13.4926252 12.9513061,14.7417957 10.7053532,15.414178 L10.007794,15.6204039 L10.007794,16.3679728 C10.007794,16.4001956 10.007794,16.4453076 10.004666,16.5065309 C9.92959233,20.9661661 10.7616584,24.3108925 12.4132784,26.1927038 C14.0398737,28.0508852 15.9000315,29.431095 17.9937518,30.3333333 C20.1062404,29.4182059 21.9684836,28.0390701 23.5804813,26.1959261 C25.2352294,24.3108925 26.0704235,20.9661661 25.9953499,16.5226423 Z" id="Path" stroke="#E41F2B"></path>
            </g>
        </g>
    </g>
</svg>