<?xml version="1.0" encoding="UTF-8"?>
<svg width="32px" height="14px" viewBox="0 0 32 14" version="1.1" xmlns="http://www.w3.org/2000/svg" xmlns:xlink="http://www.w3.org/1999/xlink">
    <!-- Generator: Sketch 48 (47235) - http://www.bohemiancoding.com/sketch -->
    <title>Artboard 3 Copy</title>
    <desc>Created with Sketch.</desc>
    <defs></defs>
    <g id="Page-1" stroke="none" stroke-width="1" fill="none" fill-rule="evenodd">
        <g id="Artboard-3-Copy" fill="#E41F2B">
            <path d="M8.89550781,11 L7.18457031,11 L3.74511719,5.24609375 L3.70996094,5.25195312 L3.70996094,11 L1.99902344,11 L1.99902344,2.46875 L3.70996094,2.46875 L7.14941406,8.21679688 L7.18457031,8.2109375 L7.18457031,2.46875 L8.89550781,2.46875 L8.89550781,11 Z M13.0849609,11.1230469 C12.1396437,11.1230469 11.4013698,10.8330107 10.8701172,10.2529297 C10.3388645,9.67284866 10.0732422,8.92578582 10.0732422,8.01171875 L10.0732422,7.77734375 C10.0732422,6.82812025 10.3310521,6.05078428 10.8466797,5.4453125 C11.3623073,4.83984072 12.0712846,4.53906248 12.9736328,4.54296875 C13.8251996,4.54296875 14.4785133,4.80370833 14.9335938,5.32519531 C15.3886742,5.84668229 15.6162109,6.54882371 15.6162109,7.43164062 L15.6162109,8.31640625 L11.8369141,8.31640625 L11.8193359,8.3515625 C11.8466798,8.78515842 11.9785144,9.1367174 12.2148438,9.40625 C12.4511731,9.6757826 12.8017555,9.81054688 13.2666016,9.81054688 C13.649416,9.81054688 13.974608,9.77148477 14.2421875,9.69335938 C14.509767,9.61523398 14.7861314,9.49609455 15.0712891,9.3359375 L15.5341797,10.390625 C15.2802722,10.5976573 14.9365256,10.7714837 14.5029297,10.9121094 C14.0693338,11.0527351 13.5966822,11.1230469 13.0849609,11.1230469 Z M12.9736328,5.86132812 C12.6298811,5.86132812 12.3652353,5.97949101 12.1796875,6.21582031 C11.9941397,6.45214962 11.8818361,6.76562305 11.8427734,7.15625 L11.8544922,7.18554688 L13.9404297,7.18554688 L13.9404297,7.05664062 C13.9404297,6.68554502 13.8642586,6.39355575 13.7119141,6.18066406 C13.5595696,5.96777237 13.3134783,5.86132812 12.9736328,5.86132812 Z M22.1259766,8.64453125 L22.1611328,8.64453125 L22.9287109,4.66015625 L24.5927734,4.66015625 L22.9814453,11 L21.5517578,11 L20.3740234,7.34375 L20.3388672,7.34375 L19.1611328,11 L17.7373047,11 L16.1259766,4.66015625 L17.7900391,4.66015625 L18.5693359,8.62695312 L18.6044922,8.62695312 L19.7880859,4.66015625 L20.9306641,4.66015625 L22.1259766,8.64453125 Z M26.9821328,2.432 L28.6021328,2.432 L28.3021328,8.54 L27.2821328,8.54 L26.9821328,2.432 Z M27.7861328,9.188 C28.0501328,9.188 28.2781328,9.272 28.4581328,9.44 C28.6261328,9.608 28.7221328,9.824 28.7221328,10.088 C28.7221328,10.352 28.6261328,10.58 28.4581328,10.748 C28.2661328,10.916 28.0501328,11 27.7861328,11 C27.5221328,11 27.3061328,10.904 27.1381328,10.736 C26.9461328,10.568 26.8621328,10.352 26.8621328,10.088 C26.8621328,9.824 26.9461328,9.608 27.1381328,9.44 C27.3061328,9.272 27.5221328,9.188 27.7861328,9.188 Z" id="Newï¼"></path>
        </g>
    </g>
</svg>