<?xml version="1.0" encoding="UTF-8"?>
<svg width="32px" height="32px" viewBox="0 0 32 32" version="1.1" xmlns="http://www.w3.org/2000/svg" xmlns:xlink="http://www.w3.org/1999/xlink">
    <!-- Generator: Sketch 47.1 (45422) - http://www.bohemiancoding.com/sketch -->
    <title>电话</title>
    <desc>Created with Sketch.</desc>
    <defs></defs>
    <g id="Page-1" stroke="none" stroke-width="1" fill="none" fill-rule="evenodd">
        <g id="导航-copy" transform="translate(-1152.000000, -1480.000000)">
            <g id="页尾-copy-8" transform="translate(0.000000, 1387.000000)">
                <g id="Group-9">
                    <g id="文字" transform="translate(377.000000, 93.000000)">
                        <g id="Group-11" transform="translate(775.000000, 0.000000)">
                            <g id="Group-24">
                                <g id="Group-27">
                                    <g id="Group-8">
                                        <circle id="Oval-Copy-2" stroke="#979797" cx="16" cy="16" r="15.5"></circle>
                                        <path d="M14.0662756,18.4757699 C13.5665969,18.4757699 12.9136293,18.7569796 12.319445,19.227871 C11.2832635,20.049129 10.8260301,21.128588 11.0599196,21.5700438 C11.0956798,21.6376252 11.1207619,21.6799554 11.1404217,21.7141814 C11.3731131,22.1197702 11.7214355,22.4884525 12.0972003,22.7047922 C12.4380039,22.9009389 12.8298713,23 13.2617861,23 C15.2406116,23 17.7663478,20.9633512 19.4043172,18.0469671 C21.4441503,14.4149195 21.5422156,10.4116821 19.61818,9.3051544 C19.2322019,9.08352241 18.7768647,8.98563307 18.279114,9.01557252 C18.2426219,9.0174814 18.2059967,9.01523762 18.1702698,9.00837232 C18.1502773,9.00421965 18.1298524,9.00080375 18.1090949,9 C17.5857627,9 16.8827671,10.0079956 16.712147,11.357041 C16.5993107,12.2488256 16.7465101,13.0833133 17.0872808,13.4825716 C17.247021,13.6696092 17.3825777,13.67259 17.4270198,13.6738289 C17.465275,13.6738289 17.8779643,13.6867223 18.1554634,14.0316619 C18.3671975,14.2946532 18.4287718,14.650978 18.3387223,15.0900222 C18.3334331,15.1158425 18.3258154,15.141328 18.3160686,15.165976 C18.0775227,15.7636261 17.7932705,16.357491 17.4712604,16.9309629 C17.1199779,17.5562741 16.7247845,18.154794 16.2963627,18.7099484 C16.2773349,18.73463 16.256045,18.7569672 16.2329922,18.776793 C16.0245182,18.9904211 15.7673123,19.1030791 15.4851184,19.1030791 C15.0377337,19.1030456 14.6905426,18.8116218 14.6524541,18.7782331 C14.6194881,18.7493989 14.5907137,18.7156415 14.5674612,18.6780331 C14.4636398,18.5106873 14.2375353,18.475758 14.0662509,18.475758 L14.0662756,18.4757699 Z" id="Shape-Copy-12" fill="#999999" fill-rule="nonzero"></path>
                                    </g>
                                </g>
                            </g>
                        </g>
                    </g>
                </g>
            </g>
        </g>
    </g>
</svg>