<?xml version="1.0" encoding="UTF-8"?>
<svg width="32px" height="32px" viewBox="0 0 32 32" version="1.1" xmlns="http://www.w3.org/2000/svg" xmlns:xlink="http://www.w3.org/1999/xlink">
    <!-- Generator: Sketch 47.1 (45422) - http://www.bohemiancoding.com/sketch -->
    <title>可信合规</title>
    <desc>Created with Sketch.</desc>
    <defs></defs>
    <g id="Page-1" stroke="none" stroke-width="1" fill="none" fill-rule="evenodd">
        <g id="导航-copy" transform="translate(-1402.000000, -1480.000000)">
            <g id="页尾-copy-8" transform="translate(0.000000, 1387.000000)">
                <g id="Group-9">
                    <g id="文字" transform="translate(377.000000, 93.000000)">
                        <g id="Group-11" transform="translate(775.000000, 0.000000)">
                            <g id="Group-26" transform="translate(250.000000, 0.000000)">
                                <g id="Group-32">
                                    <g id="Group-25" transform="translate(8.000000, 9.000000)" fill="#999999">
                                        <path d="M5.90874908,12.68228 L4.31629348,15 L2.92492003,12.8369931 L2.52242671e-13,12.9059678 L2.12694034,9.81033853 C3.00564462,11.1619552 4.33827954,12.1913011 5.90874908,12.68228 Z M13.8730597,9.81033853 L16,12.9059678 L13.07508,12.8369931 L11.6837065,15 L10.0912509,12.68228 C11.6617205,12.1913011 12.9943554,11.1619552 13.8730597,9.81033853 Z" id="Combined-Shape"></path>
                                        <path d="M8,12 C4.6862915,12 2,9.3137085 2,6 C2,2.6862915 4.6862915,0 8,0 C11.3137085,0 14,2.6862915 14,6 C14,9.3137085 11.3137085,12 8,12 Z M8.06265408,7.86066593 L9.97432302,8.86568977 L9.60922674,6.73701512 L11.1557994,5.22947936 L9.01848855,4.91890991 L8.06265408,2.98217773 L7.10681961,4.91890991 L4.96950876,5.22947936 L6.51608142,6.73701512 L6.15098514,8.86568977 L8.06265408,7.86066593 Z" id="Combined-Shape"></path>
                                    </g>
                                    <circle id="Oval-Copy-2" stroke="#979797" cx="16" cy="16" r="15.5"></circle>
                                </g>
                            </g>
                        </g>
                    </g>
                </g>
            </g>
        </g>
    </g>
</svg>