<?xml version="1.0" encoding="UTF-8"?>
<svg width="48px" height="48px" viewBox="0 0 48 48" version="1.1" xmlns="http://www.w3.org/2000/svg" xmlns:xlink="http://www.w3.org/1999/xlink">
    <!-- Generator: Sketch 47.1 (45422) - http://www.bohemiancoding.com/sketch -->
    <title>新浪微博</title>
    <desc>Created with Sketch.</desc>
    <defs></defs>
    <g id="Page-1" stroke="none" stroke-width="1" fill="none" fill-rule="evenodd">
        <g id="导航-copy" transform="translate(-254.000000, -2794.000000)">
            <g id="页尾" transform="translate(156.000000, 2316.000000)">
                <g id="Group-9">
                    <g>
                        <g id="Group-11" transform="translate(98.000000, 478.000000)">
                            <g id="Group-27">
                                <g id="Group-8">
                                    <g id="Group-14">
                                        <circle id="Oval-Copy-2" stroke="#979797" stroke-width="1.5" cx="24" cy="24" r="23.25"></circle>
                                        <path d="M27.9997743,14.2230623 C27.2017854,14.5721556 27.0187002,15.4035263 27.6007798,15.9854343 C27.8834098,16.2682359 28.149306,16.3180942 29.3132936,16.3180942 C30.942739,16.3180942 32.0400917,16.7502988 32.8715911,17.7147248 C33.8858324,18.8619357 34.0021969,19.2112007 34.0021969,21.3060609 C34.0021969,23.168278 34.0021969,23.2016599 34.4344015,23.450908 C35.4320807,24.0162538 36.0972287,23.3179385 36.3298718,21.4557643 C36.6291498,19.0282013 35.182618,16.2015581 33.0046464,14.9046438 C31.574591,14.073316 29.1303371,13.7408278 27.9997313,14.2230623 L27.9997313,14.2230623 L27.9997313,14.2230623 L27.9997743,14.2230623 Z M19.8191655,17.3156875 C17.9569484,17.9807068 16.1611516,19.2610589 14.2325141,21.322666 C9.66010395,26.1778348 9.95938196,30.8001461 14.9973785,33.2609192 C20.2349367,35.8214088 27.2847251,34.973433 31.1256526,31.3155478 C34.0020253,28.588664 33.6530178,25.1634218 30.3774361,23.9996058 C29.7953565,23.8000443 29.6125716,23.6503838 29.69564,23.467599 C29.994918,22.7359876 30.0946345,21.8879689 29.9284547,21.3892151 C29.4128384,19.8096709 27.5341449,19.4438866 24.7407119,20.3917076 L23.6267541,20.774054 L23.7264705,19.6600962 C23.8429208,18.3465769 23.5602908,17.6315277 22.7786925,17.2324475 C22.1304499,16.9000451 20.8833938,16.9332124 19.8192084,17.3157304 L19.8192084,17.3157304 L19.8192084,17.3157304 L19.8191655,17.3156875 Z M24.4416055,23.7503577 C26.9189838,24.4321108 28.4320647,25.9284579 28.4320647,27.7074351 C28.4320647,29.6861025 26.6695211,31.4652941 23.8096677,32.4129434 C22.2799387,32.911783 19.4368191,33.0114994 18.0400168,32.629153 C15.3964588,31.8810224 13.89994,30.4177567 13.89994,28.5388057 C13.89994,27.5079164 14.3489214,26.6102111 15.3299097,25.6958149 C16.2443059,24.831234 16.9426212,24.415377 18.2893937,23.9665244 C20.3180051,23.2847712 22.496277,23.2017028 24.4415626,23.7503577 L24.4415626,23.7503577 L24.4416055,23.7503577 Z M19.2040902,25.3630263 C17.5247867,26.1446675 16.6268668,27.3417366 16.6268668,28.8380838 C16.6268668,30.201633 17.2255516,31.1326772 18.5389422,31.8310783 C19.5531836,32.3797332 21.4154865,32.3299179 22.5461781,31.747967 C23.992667,30.9831025 24.940488,29.5698667 24.940488,28.1895408 C24.9235825,27.0590637 23.9261179,25.7122913 22.7457397,25.2300997 C21.7979188,24.8312769 20.2015549,24.8976115 19.2040902,25.3630692 L19.2040902,25.3630692 L19.2040902,25.3630692 L19.2040902,25.3630263 Z M20.4178932,28.4889046 C20.5342147,28.6052691 20.617326,28.8878991 20.617326,29.1373189 C20.617326,29.9687754 19.2206953,30.6503998 18.6553924,30.0850969 C18.3394664,29.7691709 18.4225778,28.9875726 18.788362,28.6218313 C19.1541033,28.2561328 20.1018813,28.1729786 20.4179361,28.4888617 L20.4179361,28.4888617 L20.4178932,28.4889046 Z M28.2824042,17.6314848 C27.5175398,18.396478 28.0329845,19.3108742 29.2468303,19.3108742 C30.294239,19.3108742 30.7596967,19.842924 30.7596967,21.0401647 C30.7596967,21.7882525 30.8264175,22.0044621 31.1256955,22.2040236 C32.0235295,22.8357898 32.7551408,22.1375603 32.7551408,20.6576896 C32.7551408,18.8453306 31.4582266,17.4819102 29.6125716,17.3488548 C28.7810722,17.2823486 28.5816393,17.3322068 28.2824042,17.6314848 L28.2824042,17.6314848 L28.2824042,17.6314848 Z" id="Shape" fill="#999999" fill-rule="nonzero"></path>
                                    </g>
                                </g>
                                <g id="电话icon" transform="translate(15.000000, 42.000000)"></g>
                            </g>
                        </g>
                    </g>
                </g>
            </g>
        </g>
    </g>
</svg>