<?xml version="1.0" encoding="UTF-8"?>
<svg width="48px" height="48px" viewBox="0 0 48 48" version="1.1" xmlns="http://www.w3.org/2000/svg" xmlns:xlink="http://www.w3.org/1999/xlink">
    <!-- Generator: Sketch 47.1 (45422) - http://www.bohemiancoding.com/sketch -->
    <title>Icon/48/_应用服务</title>
    <desc>Created with Sketch.</desc>
    <defs></defs>
    <g id="symbol" stroke="none" stroke-width="1" fill="none" fill-rule="evenodd">
        <g id="Icon/48/_应用服务">
            <g id="Icon/模板" stroke="#E41F2B" opacity="0">
                <g id="Group-2-Copy">
                    <g id="Group-100" opacity="0.15" stroke-width="0.5" stroke-linecap="square">
                        <path d="M0,0 L48,48 M48,0 L0,48" id="Diagonal"></path>
                        <path d="M2.49375,0 L2.49375,48 M14.90625,0 L14.90625,48 M24,0 L24,48 M33.09375,0 L33.09375,48 M45.49375,0 L45.49375,48" id="Vertical"></path>
                        <path d="M2.5,0 L2.5,48 M14.9125,0 L14.9125,48 M24.00625,0 L24.00625,48 M33.1,0 L33.1,48 M45.5,0 L45.5,48" id="Vertical" transform="translate(24.000000, 24.000000) rotate(-270.000000) translate(-24.000000, -24.000000) "></path>
                    </g>
                    <g id="Group" transform="translate(2.400000, 2.400000)" stroke-width="0.5" opacity="0.300000012">
                        <rect id="Rectangle-46-Copy-2" transform="translate(21.600000, 21.600000) rotate(-270.000000) translate(-21.600000, -21.600000) " x="5.85" y="0.25" width="31.5" height="42.7" rx="7.11111111"></rect>
                        <rect id="Rectangle-46-Copy-2" transform="translate(21.600000, 21.600000) rotate(-270.000000) translate(-21.600000, -21.600000) " x="3.05" y="3.05" width="37.1" height="37.1" rx="7.11111111"></rect>
                        <circle id="Oval-27" cx="21.6" cy="21.6" r="21.35"></circle>
                        <circle id="Oval-27" cx="21.6" cy="21.6" r="8.95"></circle>
                        <rect id="Rectangle-46-Copy" x="5.85" y="0.25" width="31.5" height="42.7" rx="7.11111111"></rect>
                    </g>
                </g>
            </g>
            <g id="应用服务" transform="translate(4.000000, 6.000000)">
                <path d="M38,23.4 L38,0.49445024" id="Path-2" stroke="#040000" stroke-width="2"></path>
                <path d="M1,34 L1,0.49445024" id="Path-2" stroke="#040000" stroke-width="2"></path>
                <path d="M1.5,1.5 L37.5,1.5" id="Line" stroke="#040000" stroke-width="2" stroke-linecap="square"></path>
                <path d="M1.5,9.5 L37.5,9.5" id="Line" stroke="#040000" stroke-linecap="square"></path>
                <path d="M1.1,33 L24.5,33" id="Line" stroke="#040000" stroke-width="2" stroke-linecap="square"></path>
                <path d="M22.5,28.2999992 C22.5009487,28.3017837 22.5018063,28.3033858 22.5025978,28.3048295 C22.5041826,28.3081532 22.5034807,28.3067849 22.5,28.2999992 Z M22.680533,27.9652662 C22.7628679,28.0843548 22.8241519,28.1845373 22.8687176,28.2753549 C22.9003712,28.3469051 22.9099495,28.3692587 22.9181443,28.3868857 C22.9467343,28.4154006 22.9551115,28.4164205 22.9808422,28.4168874 L23.0411487,28.4168874 C24.6195557,28.4168874 25.8757463,29.6904397 25.8744643,31.2899134 C25.8587671,31.6277367 25.7759505,31.9862334 25.6329321,32.3277256 C25.5305023,32.5658959 25.6057685,32.8585073 25.7432773,32.9608014 L25.7876755,32.9910493 L27.9373923,34.1789199 C28.0755348,34.2412513 28.1544357,34.2593703 28.2495631,34.2593853 C28.4142041,34.2608045 28.5806891,34.197432 28.7079142,34.0821729 C29.1888845,33.2926733 30.0517,32.8062365 30.9865417,32.8062365 C31.9912492,32.8062365 33.1921654,33.3689671 33.6453457,34.1128503 C33.7675611,34.2235709 33.925968,34.2860627 34.1446679,34.2954479 L34.1963121,34.2999992 C34.2692789,34.3000307 34.3519863,34.2859743 34.3401023,34.292673 L34.3956334,34.2695173 L36.6069821,33.0657792 C36.8730761,32.8828944 36.9557799,32.5920168 36.8428801,32.3292844 C36.7028006,31.9938816 36.6244835,31.6340021 36.6074604,31.2203995 C36.60841,29.5944251 37.5250612,28.4259813 39.0093594,28.4259813 C39.1447813,28.4259813 39.253513,28.3098162 39.3246687,27.9505212 C39.5605857,26.8672065 39.5592285,25.7343249 39.3157227,24.6139226 C39.2523866,24.2860875 39.1532516,24.1818489 39.0093594,24.1818489 L38.8384908,24.1818489 C37.3395467,24.1818489 36.4372806,23.0201675 36.4385911,21.3204192 C36.4542884,20.982596 36.537105,20.6240992 36.6801235,20.2826071 C36.7825997,20.0443284 36.7071936,19.7517542 36.5684331,19.6487035 L36.5247395,19.6189304 L34.368625,18.4228897 C34.2255377,18.3585452 34.1443951,18.3403457 34.0359991,18.3409678 C33.8792948,18.3394381 33.7138671,18.4000151 33.5849312,18.5104335 C33.132579,19.1967474 31.9792896,19.6762565 30.9764906,19.6762565 C30.0742644,19.6762565 29.2366456,19.2228883 28.7463381,18.4768871 C28.61501,18.3609276 28.4446682,18.2986813 28.2305472,18.3000563 C28.1899909,18.2991418 28.1099552,18.3093549 28.0679087,18.3209941 L25.8168911,19.5444328 C25.5505692,19.7274185 25.4678253,20.018287 25.5804061,20.2802555 C25.7209518,20.6161212 25.7993727,20.9762396 25.8154433,21.3562055 C25.8151646,22.9053596 24.5569673,24.1626342 22.9756376,24.1725295 C22.844821,24.1698696 22.7501093,24.2718558 22.6756519,24.6479041 C22.4511658,25.6800356 22.4416792,26.7571334 22.6481889,27.8088664 C22.6584381,27.861065 22.6692195,27.9132011 22.680533,27.9652662 Z M24.8692615,21.2841892 C24.8567352,20.9864719 24.7964079,20.7117588 24.6914537,20.4596345 C24.4317101,19.8522833 24.6275269,19.149364 25.1756501,18.7596033 L25.2620776,18.7055091 L27.6820963,17.3815314 L27.7803503,17.3541907 C27.9043671,17.3196811 28.0735432,17.2972595 28.2063307,17.3002692 C28.6143629,17.2968186 29.0001809,17.4382082 29.2961878,17.7009428 L29.3804107,17.7756987 L29.4413959,17.8689731 C29.7842104,18.3932937 30.3613865,18.7056028 30.9758875,18.7056028 C31.7210979,18.7056028 32.6121374,18.3342266 32.8953118,17.902343 L32.95969,17.8041563 L33.0496577,17.7267066 C33.3407639,17.4761042 33.717361,17.3381777 34.0932347,17.3418661 C34.310266,17.3403663 34.5193236,17.3820331 34.7901749,17.5044688 L37.0457675,18.7586853 L37.1364647,18.8167511 C37.645536,19.1892867 37.816381,19.8927877 37.5697063,20.4693588 C37.4608777,20.730647 37.3995956,21.0053608 37.3882443,21.2509349 C37.3878771,22.5453919 37.9898602,23.3073321 38.9638396,23.3073321 L39.1374456,23.3073321 C39.8091357,23.3073321 40.17815,23.8039468 40.2979755,24.4274221 C40.5661304,25.6665884 40.5667596,26.9385432 40.3033046,28.1546409 C40.1780758,28.7916094 39.8028645,29.300646 39.1374456,29.300646 C38.1711023,29.300646 37.5613937,30.0771228 37.5606683,31.3258403 C37.5734001,31.623941 37.6337379,31.8987532 37.7383752,32.1506053 C37.9981956,32.7581552 37.8025158,33.4611049 37.2543011,33.8509306 L37.168375,33.9047502 L34.8778038,35.1598563 L34.7668602,35.2109557 C34.6175605,35.2675433 34.4258869,35.3000767 34.2469015,35.2999991 L34.1417609,35.2937841 C33.7249257,35.2760316 33.3673298,35.1309036 33.0932406,34.8812943 L33.0033857,34.7994646 L32.9410972,34.6966847 C32.6467478,34.2109897 31.7167319,33.7743637 30.9860996,33.7743637 C30.3492491,33.7743637 29.7541168,34.109698 29.4173691,34.6653529 L29.3550806,34.7681327 L29.2652257,34.8499624 C28.9745463,35.1146801 28.5899453,35.2618856 28.1974817,35.258485 C27.9872475,35.2585287 27.7824909,35.2162872 27.5192723,35.0968985 L25.2724006,33.8521547 L25.1802114,33.7932092 C24.671807,33.4208346 24.5013829,32.7174049 24.7479115,32.1411751 C24.8567401,31.8798869 24.9180222,31.6051732 24.9293736,31.359599 C24.9297016,30.2031731 24.0215279,29.2913581 22.9134188,29.2913581 L22.8521461,29.2913581 C22.7938912,29.2955997 22.6713148,29.2875422 22.5416474,29.246413 C22.3006487,29.1699707 22.1326589,29.0154292 22.0300958,28.8301747 C21.9987425,28.7735428 21.9568096,28.6705871 21.9562793,28.6695009 C21.9335293,28.6228975 21.8935169,28.555403 21.8264112,28.4578339 L21.735119,28.3250984 L21.7014507,28.1693454 C21.4339415,26.9318194 21.4334143,25.6599793 21.6965239,24.4439366 C21.8241958,23.7944935 22.1856519,23.2841112 22.8652356,23.2980016 C23.9651877,23.2908594 24.8685602,22.3842021 24.8692615,21.2841892 Z" id="Path" fill="#E41F2B" fill-rule="nonzero"></path>
                <rect id="Rectangle-3" fill="#000000" fill-rule="nonzero" x="4" y="5" width="1.5" height="1.5"></rect>
                <rect id="Rectangle-3-Copy" fill="#000000" fill-rule="nonzero" x="7.5" y="5" width="1.5" height="1.5"></rect>
                <rect id="Rectangle-3-Copy-2" fill="#000000" fill-rule="nonzero" x="11" y="5" width="1.5" height="1.5"></rect>
            </g>
        </g>
    </g>
</svg>