<?xml version="1.0" encoding="UTF-8"?>
<svg width="48px" height="48px" viewBox="0 0 48 48" version="1.1" xmlns="http://www.w3.org/2000/svg" xmlns:xlink="http://www.w3.org/1999/xlink">
    <!-- Generator: Sketch 47.1 (45422) - http://www.bohemiancoding.com/sketch -->
    <title>Icon/48/_新产品上线</title>
    <desc>Created with Sketch.</desc>
    <defs></defs>
    <g id="symbol" stroke="none" stroke-width="1" fill="none" fill-rule="evenodd">
        <g id="Icon/48/_新产品上线">
            <g id="Icon/模板" stroke="#E41F2B" opacity="0">
                <g id="Group-2-Copy">
                    <g id="Group-100" opacity="0.15" stroke-width="0.5" stroke-linecap="square">
                        <path d="M0,0 L48,48 M48,0 L0,48" id="Diagonal"></path>
                        <path d="M2.49375,0 L2.49375,48 M14.90625,0 L14.90625,48 M24,0 L24,48 M33.09375,0 L33.09375,48 M45.49375,0 L45.49375,48" id="Vertical"></path>
                        <path d="M2.5,0 L2.5,48 M14.9125,0 L14.9125,48 M24.00625,0 L24.00625,48 M33.1,0 L33.1,48 M45.5,0 L45.5,48" id="Vertical" transform="translate(24.000000, 24.000000) rotate(-270.000000) translate(-24.000000, -24.000000) "></path>
                    </g>
                    <g id="Group" transform="translate(2.400000, 2.400000)" stroke-width="0.5" opacity="0.300000012">
                        <rect id="Rectangle-46-Copy-2" transform="translate(21.600000, 21.600000) rotate(-270.000000) translate(-21.600000, -21.600000) " x="5.85" y="0.25" width="31.5" height="42.7" rx="7.11111111"></rect>
                        <rect id="Rectangle-46-Copy-2" transform="translate(21.600000, 21.600000) rotate(-270.000000) translate(-21.600000, -21.600000) " x="3.05" y="3.05" width="37.1" height="37.1" rx="7.11111111"></rect>
                        <circle id="Oval-27" cx="21.6" cy="21.6" r="21.35"></circle>
                        <circle id="Oval-27" cx="21.6" cy="21.6" r="8.95"></circle>
                        <rect id="Rectangle-46-Copy" x="5.85" y="0.25" width="31.5" height="42.7" rx="7.11111111"></rect>
                    </g>
                </g>
            </g>
            <g id="Group" transform="translate(5.000000, 4.000000)">
                <path d="M31.2795228,32.1611501 C32.1536244,31.3452325 32.9454249,30.4441967 33.642008,29.472064 C35.8140434,26.4408292 37,22.8109319 37,19 C37,9.0588745 28.9411255,1 19,1 C9.0588745,1 1,9.0588745 1,19 C1,22.7827048 2.16838456,26.3872726 4.31061473,29.4056289 C4.99766563,30.3736689 5.77887037,31.2720896 6.64165857,32.0871366 L31.2795228,32.1611501 Z" id="Oval-12" stroke="#040000" stroke-width="2"></path>
                <path d="M28.2271396,27.874088 C30.3182105,25.5878131 31.5,22.6079053 31.5,19.4412831 C31.5,12.5377238 25.9035594,6.94128313 19,6.94128313 C12.0964406,6.94128313 6.5,12.5377238 6.5,19.4412831 C6.5,22.6336276 7.70118121,25.6358676 9.82282348,27.9284053 L28.2271396,27.874088 Z" id="Oval-12" stroke="#040000"></path>
                <path d="M19.7999685,26.3062386 L28.8702896,38.4 L28.8702896,38.4 C29.2016604,38.8418278 29.1121174,39.4686292 28.6702896,39.8 C28.4971934,39.9298221 28.2866598,40 28.0702896,40 L9.92964742,40 L9.92964742,40 C9.37736267,40 8.92964742,39.5522847 8.92964742,39 C8.92964742,38.7836298 8.9998253,38.5730962 9.12964742,38.4 L18.1999685,26.3062386 L18.1999685,26.3062386 C18.5313394,25.8644108 19.1581407,25.7748677 19.5999685,26.1062386 C19.6757742,26.1630928 19.7431143,26.2304329 19.7999685,26.3062386 Z" id="Rectangle-13" stroke="#E41F2B"></path>
            </g>
        </g>
    </g>
</svg>