<?xml version="1.0" encoding="UTF-8"?>
<svg width="32px" height="32px" viewBox="0 0 32 32" version="1.1" xmlns="http://www.w3.org/2000/svg" xmlns:xlink="http://www.w3.org/1999/xlink">
    <!-- Generator: Sketch 47.1 (45422) - http://www.bohemiancoding.com/sketch -->
    <title>华为云安全</title>
    <desc>Created with Sketch.</desc>
    <defs></defs>
    <g id="Page-1" stroke="none" stroke-width="1" fill="none" fill-rule="evenodd">
        <g id="导航-copy" transform="translate(-1402.000000, -1533.000000)">
            <g id="页尾-copy-8" transform="translate(0.000000, 1387.000000)">
                <g id="Group-9">
                    <g id="文字" transform="translate(377.000000, 93.000000)">
                        <g id="Group-11" transform="translate(775.000000, 0.000000)">
                            <g id="Group-26" transform="translate(250.000000, 0.000000)">
                                <g id="Group-30" transform="translate(0.000000, 53.000000)">
                                    <path d="M22.4980662,12.9021233 C22.5614189,16.472812 21.8566199,19.1605386 20.4602204,20.6752978 C18.419735,22.8969446 16.3554923,23.7980321 16.1020814,23.9016054 C15.9938539,23.9663387 15.8697881,24 15.7457224,24 C15.619017,24 15.497591,23.9637494 15.3920031,23.8990161 C15.1280334,23.7902641 13.0954671,22.9124806 11.0365038,20.6727084 C9.64274405,19.1605386 8.94058477,16.472812 9.00393749,12.8891766 C9.00657719,12.8399793 9.00657719,12.8037286 9.00657719,12.7778353 L9.00657719,12.1771103 L9.59522952,12.0113931 C12.4381827,11.2009322 14.7452775,9.55670636 15.2125037,9.20973589 C15.2415404,9.1786639 15.2784961,9.15277058 15.3207313,9.12428793 C15.3365695,9.1139306 15.3550473,9.10098395 15.3735252,9.09321595 C15.4923116,9.03107198 15.619017,9 15.7562812,9 C15.8882661,9 16.0176112,9.03366132 16.1390372,9.10098395 L16.175993,9.12428793 C16.2182281,9.15018126 16.2578236,9.18125324 16.297419,9.21750388 C16.9309462,9.68617296 19.1430119,11.2242361 21.9067741,12.0113931 L22.4954265,12.1771103 C22.4954265,12.5914034 22.4954265,12.8028655 22.4954265,12.8114966 C22.4980662,12.8373899 22.4980662,12.8658726 22.4980662,12.9021233 Z M13.4838673,15.3277367 L12.6416185,16.2903068 L15.7484439,19.008779 L18.7109827,14.5649709 L17.6467633,13.8554913 L15.493172,17.0858783 L13.4838673,15.3277367 Z" id="Combined-Shape" fill="#999999" fill-rule="nonzero"></path>
                                    <circle id="Oval-Copy-2" stroke="#979797" cx="16" cy="16" r="15.5"></circle>
                                </g>
                            </g>
                        </g>
                    </g>
                </g>
            </g>
        </g>
    </g>
</svg>