<?xml version="1.0" encoding="UTF-8"?>
<svg width="98px" height="24px" viewBox="0 0 98 24" version="1.1" xmlns="http://www.w3.org/2000/svg" xmlns:xlink="http://www.w3.org/1999/xlink">
    <!-- Generator: Sketch 47.1 (45422) - http://www.bohemiancoding.com/sketch -->
    <title>Artboard 7</title>
    <desc>Created with Sketch.</desc>
    <defs></defs>
    <g id="Page-1" stroke="none" stroke-width="1" fill="none" fill-rule="evenodd">
        <g id="Artboard-7">
            <g id="最新公告">
                <path d="M0,12.1034483 L0,9.92241379 L22.8711656,9.92241379 L22.8711656,12.1034483 L11.3865031,12.1034483 L11.3865031,19.4396552 C11.7137031,19.4396552 12.0736177,19.3735639 12.4662577,19.2413793 L12.4662577,21.2241379 C12.0736177,21.3563225 11.7137031,21.4554594 11.3865031,21.5215517 L11.3865031,23.9008621 L8.24539877,23.9008621 L8.24539877,22.1163793 C5.75867877,22.512933 3.07567902,22.8103438 0.196319018,23.0086207 L0.196319018,20.4310345 L1.76687117,20.4310345 L1.76687117,12.1034483 L0,12.1034483 Z M2.55214724,9.03017241 L2.55214724,1.59482759 L20.2208589,1.59482759 L20.2208589,5.85775862 C20.3517389,8.03880401 19.3374341,9.0962647 17.1779141,9.03017241 L2.55214724,9.03017241 Z M12.4662577,23.9008621 L12.4662577,21.7198276 C13.4478577,21.3232739 14.3312844,20.8936805 15.1165644,20.4310345 C14.0695244,19.5057425 13.1860977,18.0517341 12.4662577,16.0689655 L15.607362,16.0689655 C15.934562,16.9942575 16.4253546,17.88649 17.0797546,18.7456897 C17.8650346,17.7543054 18.4539858,16.6637991 18.8466258,15.4741379 L12.1717791,15.4741379 L12.1717791,13.3922414 L22.1840491,13.3922414 L22.1840491,15.5732759 C21.2678891,17.8204135 20.2863038,19.4396502 19.2392638,20.4310345 C20.1554238,20.8936805 21.2351676,21.3232739 22.4785276,21.7198276 L22.4785276,23.9008621 C20.3844476,23.3721238 18.6503136,22.7112109 17.2760736,21.9181034 C16.0327136,22.7112109 14.4294577,23.3721238 12.4662577,23.9008621 Z M6.08588957,7.24568966 L15.803681,7.24568966 C16.523521,7.31178194 16.8507161,6.94827983 16.7852761,6.15517241 L16.7852761,6.05603448 L6.08588957,6.05603448 L6.08588957,7.24568966 Z M6.08588957,3.47844828 L6.08588957,4.46982759 L16.7852761,4.46982759 L16.7852761,3.47844828 L6.08588957,3.47844828 Z M4.80981595,20.2327586 C5.98773595,20.1666663 7.13291877,20.0344837 8.24539877,19.8362069 L8.24539877,18.5474138 L4.80981595,18.5474138 L4.80981595,20.2327586 Z M4.80981595,15.2758621 L4.80981595,16.762931 L8.24539877,16.762931 L8.24539877,15.2758621 L4.80981595,15.2758621 Z M4.80981595,12.1034483 L4.80981595,13.4913793 L8.24539877,13.4913793 L8.24539877,12.1034483 L4.80981595,12.1034483 Z M36.9079755,24 L36.9079755,22.0172414 C34.8138955,21.0258571 33.7014321,19.0431183 33.5705521,16.0689655 L36.2208589,16.0689655 C36.2862989,17.8534572 36.744372,19.2413744 37.595092,20.2327586 C37.791412,19.5718358 37.8895706,18.5143751 37.8895706,17.0603448 L37.8895706,1.99137931 L43.190184,1.99137931 C44.891624,2.05747159 46.429441,1.82615207 47.803681,1.29741379 L47.803681,3.875 C46.494881,4.27155371 45.1206616,4.46982759 43.6809816,4.46982759 L41.1288344,4.46982759 L41.1288344,7.54310345 L48,7.54310345 L48,10.0215517 L46.1349693,10.0215517 L46.1349693,23.5043103 L42.8957055,23.5043103 L42.8957055,10.0215517 L41.1288344,10.0215517 L41.1288344,16.2672414 C41.3905944,20.0345016 39.9836555,22.612062 36.9079755,24 Z M25.1288344,10.7155172 L25.1288344,8.3362069 L27.190184,8.3362069 C26.797544,7.54309948 26.5685075,6.61782138 26.5030675,5.56034483 L29.4478528,5.56034483 C29.6441728,6.55172909 29.8732093,7.4770072 30.1349693,8.3362069 L32.392638,8.3362069 C32.719838,7.41091491 32.9161551,6.48563681 32.9815951,5.56034483 L36.0245399,5.56034483 C35.8282199,6.61782138 35.5991833,7.54309948 35.3374233,8.3362069 L37.3006135,8.3362069 L37.3006135,10.7155172 L33.0797546,10.7155172 L33.0797546,12.6982759 L36.9079755,12.6982759 L36.9079755,15.0775862 L33.0797546,15.0775862 L33.0797546,20.0344828 C33.1451946,22.4798973 32.0654508,23.6695406 29.8404908,23.6034483 L27.8773006,23.6034483 L27.8773006,21.2241379 L28.7607362,21.2241379 C29.5460162,21.2902302 29.9059308,20.8606368 29.8404908,19.9353448 L29.8404908,15.0775862 L25.6196319,15.0775862 L25.6196319,12.6982759 L29.8404908,12.6982759 L29.8404908,10.7155172 L25.1288344,10.7155172 Z M25.7177914,4.86637931 L25.7177914,2.48706897 L29.4478528,2.48706897 L29.4478528,1 L33.0797546,1 L33.0797546,2.48706897 L36.809816,2.48706897 L36.809816,4.86637931 L25.7177914,4.86637931 Z M24.8343558,22.512931 L24.8343558,20.3318966 C25.9468358,19.27442 26.5685065,17.8534572 26.6993865,16.0689655 L29.2515337,16.0689655 C29.1860937,19.1753029 27.7137158,21.3232699 24.8343558,22.512931 Z" fill="#252B3A"></path>
                <path d="M67.4455852,23 C67.3798765,22.4689728 67.2484609,21.9047649 67.0513347,21.3073593 C63.7001886,21.8383865 59.3963302,22.1038961 54.1396304,22.1038961 L52.0698152,22.1038961 L52.0698152,19.017316 C54.7638738,16.0966665 56.8336683,12.7777964 58.2792608,9.06060606 L62.5174538,9.06060606 C60.8090264,13.1760668 58.5749625,16.4949369 55.8151951,19.017316 C59.2977587,19.0836944 62.7802701,18.9509396 66.2628337,18.6190476 C65.8028724,17.2251013 65.1786487,15.7979871 64.3901437,14.3376623 L67.7412731,14.3376623 C69.318283,17.1919335 70.5010228,20.0793505 71.2895277,23 L67.4455852,23 Z M72.6694045,12.3463203 C67.2155785,10.3549684 63.9958982,6.50507905 63.0102669,0.796536797 L66.9527721,0.796536797 C67.6098595,4.4473487 69.5153846,7.50070922 72.6694045,9.95670996 L72.6694045,12.3463203 Z M50,12.3463203 L50,9.95670996 C53.1540199,7.50070922 55.059545,4.4473487 55.7166324,0.796536797 L59.6591376,0.796536797 C58.6735064,6.50507905 55.453826,10.3549684 50,12.3463203 Z M77.7946612,22.9004329 L77.7946612,13.1428571 L95.7330595,13.1428571 L95.7330595,18.9177489 C95.7330595,21.5728848 94.5503198,22.9004329 92.1848049,22.9004329 L77.7946612,22.9004329 Z M76.2176591,7.86580087 L76.2176591,5.67532468 C77.6632516,4.41413511 78.4845986,2.72151134 78.6817248,0.597402597 L82.1314168,0.597402597 C82.0657081,1.19480818 81.9671464,1.7590161 81.835729,2.29004329 L85.2854209,2.29004329 L85.2854209,0 L89.1293634,0 L89.1293634,2.29004329 L96.6201232,2.29004329 L96.6201232,4.87878788 L89.1293634,4.87878788 L89.1293634,8.66233766 L98,8.66233766 L98,11.2510823 L75.1334702,11.2510823 L75.1334702,8.66233766 L85.2854209,8.66233766 L85.2854209,4.87878788 L80.6529774,4.87878788 C79.7330549,6.07359905 78.2546303,7.06926009 76.2176591,7.86580087 Z M81.5400411,20.3116883 L90.6078029,20.3116883 C91.5934341,20.2453099 92.0533884,19.7142907 91.9876797,18.7186147 L91.9876797,15.6320346 L81.5400411,15.6320346 L81.5400411,20.3116883 Z" fill="#EF2336"></path>
            </g>
        </g>
    </g>
</svg>