<?xml version="1.0" encoding="UTF-8"?>
<svg width="48px" height="48px" viewBox="0 0 48 48" version="1.1" xmlns="http://www.w3.org/2000/svg" xmlns:xlink="http://www.w3.org/1999/xlink">
    <!-- Generator: Sketch 47.1 (45422) - http://www.bohemiancoding.com/sketch -->
    <title>Icon/48/_数据分析</title>
    <desc>Created with Sketch.</desc>
    <defs></defs>
    <g id="symbol" stroke="none" stroke-width="1" fill="none" fill-rule="evenodd">
        <g id="Icon/48/_数据分析">
            <g id="Icon/模板" stroke="#E41F2B" opacity="0">
                <g id="Group-2-Copy">
                    <g id="Group-100" opacity="0.15" stroke-width="0.5" stroke-linecap="square">
                        <path d="M0,0 L48,48 M48,0 L0,48" id="Diagonal"></path>
                        <path d="M2.49375,0 L2.49375,48 M14.90625,0 L14.90625,48 M24,0 L24,48 M33.09375,0 L33.09375,48 M45.49375,0 L45.49375,48" id="Vertical"></path>
                        <path d="M2.5,0 L2.5,48 M14.9125,0 L14.9125,48 M24.00625,0 L24.00625,48 M33.1,0 L33.1,48 M45.5,0 L45.5,48" id="Vertical" transform="translate(24.000000, 24.000000) rotate(-270.000000) translate(-24.000000, -24.000000) "></path>
                    </g>
                    <g id="Group" transform="translate(2.400000, 2.400000)" stroke-width="0.5" opacity="0.300000012">
                        <rect id="Rectangle-46-Copy-2" transform="translate(21.600000, 21.600000) rotate(-270.000000) translate(-21.600000, -21.600000) " x="5.85" y="0.25" width="31.5" height="42.7" rx="7.11111111"></rect>
                        <rect id="Rectangle-46-Copy-2" transform="translate(21.600000, 21.600000) rotate(-270.000000) translate(-21.600000, -21.600000) " x="3.05" y="3.05" width="37.1" height="37.1" rx="7.11111111"></rect>
                        <circle id="Oval-27" cx="21.6" cy="21.6" r="21.35"></circle>
                        <circle id="Oval-27" cx="21.6" cy="21.6" r="8.95"></circle>
                        <rect id="Rectangle-46-Copy" x="5.85" y="0.25" width="31.5" height="42.7" rx="7.11111111"></rect>
                    </g>
                </g>
            </g>
            <g id="Group" transform="translate(4.000000, 2.000000)">
                <path d="M9.03415951,18.867442 C9.38470427,19.0692216 9.78367263,19.176417 10.1879044,19.176417 C11.0111056,19.176417 11.7785144,18.7350242 12.1890623,18.023541 C12.825938,16.9232117 12.4469706,15.5097036 11.3437547,14.8738878 C10.2784355,14.2601415 8.80151569,14.6573951 8.18885188,15.7177888 C7.55092358,16.8191691 7.93094357,18.2316261 9.03415951,18.867442 Z M9.0994261,16.2432565 C9.32364843,15.8554614 9.74156515,15.6158481 10.1900098,15.6158481 C10.4089687,15.6158481 10.6258222,15.6736495 10.8174112,15.7839978 C11.4174428,16.1297555 11.6248221,16.8990401 11.2784881,17.4980733 C10.9447863,18.0739858 10.1447443,18.2936313 9.56050299,17.957332 C8.95941874,17.6115743 8.75309209,16.8422896 9.0994261,16.2432565 Z M19.985262,31.5049394 C18.7115108,31.5049394 17.6756668,32.5390598 17.6756668,33.8106915 C17.6756668,35.0823233 18.7115108,36.1164436 19.985262,36.1164436 C21.2579605,36.1164436 22.2938045,35.0823233 22.2938045,33.8106915 C22.2938045,32.5390598 21.2579605,31.5049394 19.985262,31.5049394 Z M19.985262,35.0644574 C19.292594,35.0644574 18.7283537,34.501156 18.7283537,33.8096406 C18.7283537,33.1181251 19.292594,32.5548238 19.985262,32.5548238 C20.67793,32.5548238 21.2411175,33.1181251 21.2411175,33.8096406 C21.2411175,34.501156 20.67793,35.0644574 19.985262,35.0644574 Z M37.6409277,9.24612905 L22.3506496,0.548588244 C21.0653188,-0.182862748 18.9357331,-0.182862748 17.6504023,0.548588244 L2.36012417,9.24612905 C1.03584397,9.99964969 0,11.7809851 0,13.3006376 L0,31.6793947 C0,33.2000981 1.03584397,34.9814335 2.36012417,35.7349541 L17.6504023,44.4324949 C18.2925413,44.7982204 19.1273221,45 19.9999996,45 C20.8726771,45 21.7074579,44.7992714 22.3495969,44.4324949 L37.639875,35.7349541 C38.9641552,34.9814335 39.9999992,33.2000981 39.9999992,31.6793947 L39.9999992,13.3006376 C40.0010519,11.7809851 38.9652079,9.99964969 37.6409277,9.24612905 Z M37.895678,31.6804456 C37.895678,32.4612905 37.276698,33.5237862 36.5987676,33.9105304 L21.3084895,42.6080712 C20.6589816,42.9780004 19.3431229,42.9780004 18.6936151,42.6080712 L3.40228426,33.9094794 C2.72330117,33.5227352 2.10537392,32.4602396 2.10537392,31.6793947 L2.10537392,13.3006376 C2.10537392,12.5208436 2.72435386,11.4583479 3.40228426,11.0716037 L18.6925624,2.37406292 C19.0178427,2.1890983 19.4947099,2.08295383 19.9999996,2.08295383 C20.5052893,2.08295383 20.9832092,2.1890983 21.3074368,2.37406292 L36.5977149,11.0716037 C37.276698,11.4583479 37.8946253,12.5208436 37.8946253,13.3006376 L37.8946253,31.6804456 L37.895678,31.6804456 Z M30.67214,26.6222938 C29.979472,26.2229384 29.1352171,26.3479997 28.5762403,26.862958 L22.7717244,23.5167799 C22.8843619,23.2036012 22.9569973,22.8704547 22.9569973,22.5173404 C22.9569973,22.1652771 22.8854146,21.8310797 22.7717244,21.5179009 L28.0172635,18.49436 L27.49092,17.58425 L22.2432755,20.6088419 C21.8064104,20.0938836 21.2053262,19.7281581 20.5116055,19.6030968 L20.5116055,12.9170462 C21.2369068,12.692146 21.767461,12.0237511 21.767461,11.2250403 C21.767461,10.2424158 20.9695243,9.44475583 19.9842093,9.44475583 C18.999947,9.44475583 18.2009576,10.2413648 18.2009576,11.2250403 C18.2009576,12.0237511 18.7315118,12.692146 19.4578658,12.9170462 L19.4578658,19.6030968 C18.7641451,19.7271071 18.1630608,20.0938836 17.7251431,20.6088419 L12.4774986,17.58425 L11.9511551,18.49436 L17.1966942,21.5179009 C17.0840567,21.8310797 17.0114213,22.1652771 17.0114213,22.5173404 C17.0114213,22.8694038 17.083004,23.2025503 17.1966942,23.5167799 L11.3921783,26.862958 C10.8342542,26.3479997 9.98894659,26.2229384 9.29522588,26.6222938 C8.44254944,27.1141316 8.15095515,28.2029006 8.64255996,29.0541582 C9.13416477,29.9054158 10.2247485,30.1975758 11.0784776,29.7057381 C11.7711456,29.3063827 12.085899,28.5139774 11.9174691,27.773068 L17.7240904,24.425839 C18.1620082,24.9407973 18.7630924,25.3075737 19.4568131,25.4315841 L19.4568131,31.4744623 L20.5095001,31.4744623 L20.5095001,25.4315841 C21.2021681,25.3075737 21.8032524,24.9407973 22.2411701,24.425839 L28.0477914,27.773068 C27.8804142,28.5139774 28.1941149,29.3063827 28.8867829,29.7057381 C29.7394594,30.1975758 30.8300431,29.9054158 31.3227006,29.0541582 C31.8153581,28.2029006 31.5258692,27.1141316 30.67214,26.6222938 Z M28.6267693,14.8738878 C28.0920043,15.1818118 27.7098789,15.6789042 27.5509232,16.2747846 C27.3919674,16.869614 27.474077,17.4907167 27.7825143,18.0245919 C28.1941149,18.7360751 28.960471,19.1774679 29.7836722,19.1774679 C30.1868513,19.1774679 30.5858197,19.0702725 30.9363645,18.868493 C31.4711294,18.5605689 31.8532548,18.0634765 32.0122105,17.4675962 C32.1711663,16.8727668 32.0890567,16.251664 31.7806194,15.7177888 C31.1690083,14.658446 29.6931411,14.2590906 28.6267693,14.8738878 Z M30.9953149,17.1954039 C30.9079419,17.519092 30.7005626,17.7902333 30.4089683,17.957332 C29.8268324,18.2936313 29.0267903,18.0739858 28.6920358,17.4980733 C28.5246586,17.2080151 28.4804458,16.869614 28.5667661,16.5459259 C28.6541391,16.2222378 28.8615184,15.9510965 29.1531127,15.7839978 C29.3447018,15.6736495 29.5605026,15.6158481 29.7794615,15.6158481 C30.2279061,15.6158481 30.6458229,15.8565123 30.8700452,16.2432565 C31.0374224,16.5343656 31.0816353,16.8717158 30.9953149,17.1954039 Z" id="Shape" fill="#060001" fill-rule="nonzero"></path>
                <circle id="Oval-10" fill="#E41F2B" cx="20" cy="22.5" r="3"></circle>
                <circle id="Oval-10" fill="#E41F2B" cx="10" cy="28.2000008" r="2"></circle>
                <circle id="Oval-10" fill="#E41F2B" cx="20" cy="11" r="2"></circle>
                <circle id="Oval-10" fill="#E41F2B" cx="30" cy="28.2000008" r="2"></circle>
            </g>
        </g>
    </g>
</svg>