<?xml version="1.0" encoding="UTF-8"?>
<svg width="48px" height="48px" viewBox="0 0 48 48" version="1.1" xmlns="http://www.w3.org/2000/svg" xmlns:xlink="http://www.w3.org/1999/xlink">
    <!-- Generator: Sketch 47.1 (45422) - http://www.bohemiancoding.com/sketch -->
    <title>Icon/48/_软件开发云</title>
    <desc>Created with Sketch.</desc>
    <defs></defs>
    <g id="symbol" stroke="none" stroke-width="1" fill="none" fill-rule="evenodd">
        <g id="Icon/48/_软件开发云">
            <g id="Icon/模板" stroke="#E41F2B" opacity="0">
                <g id="Group-2-Copy">
                    <g id="Group-100" opacity="0.15" stroke-width="0.5" stroke-linecap="square">
                        <path d="M0,0 L48,48 M48,0 L0,48" id="Diagonal"></path>
                        <path d="M2.49375,0 L2.49375,48 M14.90625,0 L14.90625,48 M24,0 L24,48 M33.09375,0 L33.09375,48 M45.49375,0 L45.49375,48" id="Vertical"></path>
                        <path d="M2.5,0 L2.5,48 M14.9125,0 L14.9125,48 M24.00625,0 L24.00625,48 M33.1,0 L33.1,48 M45.5,0 L45.5,48" id="Vertical" transform="translate(24.000000, 24.000000) rotate(-270.000000) translate(-24.000000, -24.000000) "></path>
                    </g>
                    <g id="Group" transform="translate(2.400000, 2.400000)" stroke-width="0.5" opacity="0.300000012">
                        <rect id="Rectangle-46-Copy-2" transform="translate(21.600000, 21.600000) rotate(-270.000000) translate(-21.600000, -21.600000) " x="5.85" y="0.25" width="31.5" height="42.7" rx="7.11111111"></rect>
                        <rect id="Rectangle-46-Copy-2" transform="translate(21.600000, 21.600000) rotate(-270.000000) translate(-21.600000, -21.600000) " x="3.05" y="3.05" width="37.1" height="37.1" rx="7.11111111"></rect>
                        <circle id="Oval-27" cx="21.6" cy="21.6" r="21.35"></circle>
                        <circle id="Oval-27" cx="21.6" cy="21.6" r="8.95"></circle>
                        <rect id="Rectangle-46-Copy" x="5.85" y="0.25" width="31.5" height="42.7" rx="7.11111111"></rect>
                    </g>
                </g>
            </g>
            <path d="M33.7279312,12.1383812 L15.702352,12.1383812 C15.4149685,11.6443548 14.8855196,11.3076193 14.2742769,11.3076193 C13.3590709,11.3076193 12.616295,12.051982 12.616295,12.9691431 C12.616295,13.8863043 13.3590709,14.630667 14.2742769,14.630667 C15.0944253,14.630667 15.7719873,14.030303 15.9046258,13.2460638 L33.7279312,13.2460638 C34.7216151,13.2460638 35.6069774,14.4844529 35.6069774,15.4614289 L35.6069774,15.7383496 C35.6069774,16.7153256 34.7216151,17.9537147 33.7279312,17.9537147 L19.5886616,17.9537147 C19.3598601,17.3101511 18.7519334,16.8460321 18.0323692,16.8460321 C17.3116998,16.8460321 16.7048784,17.3101511 16.4760769,17.9537147 L14.2742769,17.9537147 C12.6295589,17.9537147 11.2910148,19.1954269 11.2910148,20.7229211 C11.2910148,22.2504154 12.6295589,23.4921275 14.2742769,23.4921275 L28.4135466,23.4921275 C28.6423481,24.1356911 29.2491695,24.5998101 29.9698389,24.5998101 C30.6905084,24.5998101 31.2984351,24.1356911 31.5261313,23.4921275 L33.7279312,23.4921275 C34.7857237,23.4921275 35.6069774,24.5333492 35.6069774,25.430572 L35.6069774,25.9844133 C35.6069774,26.8816362 34.7857237,27.9228578 33.7279312,27.9228578 L15.8305693,27.9228578 C15.6017678,27.2792942 14.9949464,26.8151753 14.2742769,26.8151753 C13.3590709,26.8151753 12.616295,27.5595379 12.616295,28.4766991 C12.616295,29.3938603 13.3590709,30.138223 14.2742769,30.138223 C14.9938411,30.138223 15.6017678,29.674104 15.8305693,29.0305404 L33.7279312,29.0305404 C35.4367579,29.0305404 36.7122987,27.4221853 36.7122987,25.9844133 L36.7122987,25.430572 C36.7122987,23.9928001 35.4367579,22.384445 33.7279312,22.384445 L31.5261313,22.384445 C31.2973298,21.7408814 30.6894031,21.2767624 29.9698389,21.2767624 C29.2502748,21.2767624 28.6423481,21.7408814 28.4135466,22.384445 L14.2742769,22.384445 C13.2385909,22.384445 12.3963361,21.6389746 12.3963361,20.7229211 C12.3963361,19.8068676 13.2396962,19.0613973 14.2742769,19.0613973 L16.4760769,19.0613973 C16.7048784,19.7049608 17.3116998,20.1690798 18.0323692,20.1690798 C18.7519334,20.1690798 19.3598601,19.7049608 19.5886616,19.0613973 L33.7279312,19.0613973 C35.3814919,19.0613973 36.7122987,17.2425825 36.7122987,15.7383496 L36.7122987,15.4614289 C36.7122987,13.957196 35.3814919,12.1383812 33.7279312,12.1383812 Z M41.6862444,3 L6.3159638,3 C4.48776243,3 3,4.49094074 3,6.32304771 L3,30.9623388 C3,32.5928475 4.0655297,34.4304929 5.47813028,35.2368858 L21.5318164,44.4029591 C22.2060624,44.7884326 23.0825821,45 23.9988934,45 C24.9163101,45 25.7928299,44.7884326 26.4670758,44.4029591 L42.5207619,35.2368858 C43.9344678,34.4293852 44.9999975,32.5906322 44.9999975,30.9623388 L44.9999975,6.32304771 C45.0022082,4.49094074 43.5155511,3 41.6862444,3 Z M42.7915656,30.9623388 C42.7915656,31.7842393 42.1416367,32.905214 41.4287045,33.3117335 L25.3750184,42.4778068 C24.6908246,42.8688187 23.3124889,42.8699264 22.6282951,42.4778068 L6.57350366,33.3117335 C5.86057144,32.905214 5.21174786,31.7842393 5.21174786,30.9623388 L5.21174786,6.32304771 C5.21174786,5.71160693 5.70693179,5.21536514 6.31706912,5.21536514 L41.6873497,5.21536514 C42.297487,5.21536514 42.792671,5.71160693 42.792671,6.32304771 L42.792671,30.9623388 L42.7915656,30.9623388 Z" id="Shape" fill="#040000" fill-rule="nonzero"></path>
            <circle id="Oval-10" fill="#E41F2B" cx="14" cy="12.8000002" r="2"></circle>
            <circle id="Oval-10" fill="#E41F2B" cx="18" cy="18.5" r="2"></circle>
            <circle id="Oval-10" fill="#E41F2B" cx="30" cy="22.7000008" r="2"></circle>
            <circle id="Oval-10" fill="#E41F2B" cx="14" cy="28.3999996" r="2"></circle>
        </g>
    </g>
</svg>