<?xml version="1.0" encoding="UTF-8"?>
<svg width="48px" height="48px" viewBox="0 0 48 48" version="1.1" xmlns="http://www.w3.org/2000/svg" xmlns:xlink="http://www.w3.org/1999/xlink">
    <!-- Generator: Sketch 47.1 (45422) - http://www.bohemiancoding.com/sketch -->
    <title>Icon/48/_数据库</title>
    <desc>Created with Sketch.</desc>
    <defs></defs>
    <g id="symbol" stroke="none" stroke-width="1" fill="none" fill-rule="evenodd">
        <g id="Icon/48/_数据库">
            <g id="Icon/模板" stroke="#E41F2B" opacity="0">
                <g id="Group-2-Copy">
                    <g id="Group-100" opacity="0.15" stroke-width="0.5" stroke-linecap="square">
                        <path d="M0,0 L48,48 M48,0 L0,48" id="Diagonal"></path>
                        <path d="M2.49375,0 L2.49375,48 M14.90625,0 L14.90625,48 M24,0 L24,48 M33.09375,0 L33.09375,48 M45.49375,0 L45.49375,48" id="Vertical"></path>
                        <path d="M2.5,0 L2.5,48 M14.9125,0 L14.9125,48 M24.00625,0 L24.00625,48 M33.1,0 L33.1,48 M45.5,0 L45.5,48" id="Vertical" transform="translate(24.000000, 24.000000) rotate(-270.000000) translate(-24.000000, -24.000000) "></path>
                    </g>
                    <g id="Group" transform="translate(2.400000, 2.400000)" stroke-width="0.5" opacity="0.300000012">
                        <rect id="Rectangle-46-Copy-2" transform="translate(21.600000, 21.600000) rotate(-270.000000) translate(-21.600000, -21.600000) " x="5.85" y="0.25" width="31.5" height="42.7" rx="7.11111111"></rect>
                        <rect id="Rectangle-46-Copy-2" transform="translate(21.600000, 21.600000) rotate(-270.000000) translate(-21.600000, -21.600000) " x="3.05" y="3.05" width="37.1" height="37.1" rx="7.11111111"></rect>
                        <circle id="Oval-27" cx="21.6" cy="21.6" r="21.35"></circle>
                        <circle id="Oval-27" cx="21.6" cy="21.6" r="8.95"></circle>
                        <rect id="Rectangle-46-Copy" x="5.85" y="0.25" width="31.5" height="42.7" rx="7.11111111"></rect>
                    </g>
                </g>
            </g>
            <g id="Group" transform="translate(3.000000, 3.000000)">
                <path d="M39.5262226,21.7913011 L32.0430008,17.4963006 L32.0430008,8.39800233 C32.0430008,6.79209386 30.9553361,4.9098404 29.5670161,4.11299017 L23.4577448,0.605961315 C22.0506338,-0.201987105 19.9283612,-0.201987105 18.5223555,0.605961315 L12.4130842,4.11299017 C11.0247642,4.9098404 9.9370995,6.79209386 9.9370995,8.39800233 L9.9370995,17.4918613 L2.47598475,21.7746538 C1.08766473,22.5715041 0,24.4537575 0,26.059666 L0,33.5853504 C0,35.190149 1.08655938,37.0724025 2.47598475,37.8703625 L8.58525604,41.3773914 C9.28936421,41.7813656 10.1714338,41.9822429 11.052398,41.9822429 C11.9333622,41.9822429 12.8176425,41.7802558 13.5195399,41.3773914 L20.9850761,37.0923792 L28.4804567,41.3951485 C29.1845649,41.7991227 30.0666344,42 30.9475986,42 C31.8285629,42 32.7128431,41.7980129 33.4147406,41.3951485 L39.5240119,37.8881196 C40.9123319,37.0912694 41.9999966,35.209016 41.9999966,33.6031075 L41.9999966,26.0774231 C42.0022073,24.4704048 40.9145426,22.5870415 39.5262226,21.7913011 Z M12.1478002,8.39800233 C12.1478002,7.57340662 12.7977462,6.44915971 13.5095918,6.0396364 L19.6188631,2.53260755 C20.3351301,2.1208646 21.6438649,2.1208646 22.3601319,2.53260755 L28.4694032,6.0396364 C29.1823542,6.44915971 29.8311948,7.5722968 29.8311948,8.39800233 L29.8311948,18.0501004 L22.6232053,22.1875066 C22.6044143,22.1986048 22.5767806,22.2019343 22.5568843,22.2119226 C22.1589581,21.8079484 21.6073883,21.5571293 20.9961296,21.5549096 C20.3771334,21.55269 19.8178261,21.8079484 19.4143733,22.2185815 C19.4099519,22.2163619 19.4033198,22.2152521 19.3988984,22.2130324 C19.3790021,22.2008244 19.3613164,22.185287 19.3414201,22.1741888 L12.1433788,18.0434415 L12.1433788,8.39800233 L12.1478002,8.39800233 Z M20.4379277,34.8483247 L12.4241378,39.4485255 C11.7078707,39.8602685 10.3991359,39.8602685 9.68286892,39.4485255 L3.57359763,35.9414967 C2.86064666,35.5319734 2.21180602,34.4077265 2.21180602,33.5831307 L2.21180602,26.0574464 C2.21180602,25.2328507 2.86175201,24.1086037 3.57359763,23.6990804 L11.6028625,19.0911109 L11.5464896,18.992337 L18.788745,23.1497199 C18.8130627,23.1641476 18.8429071,23.1741359 18.8683302,23.1874538 C18.8185894,23.3727936 18.7821129,23.5636825 18.7810075,23.76345 C18.7776915,24.7966917 19.4817996,25.6623507 20.4335063,25.91206 C20.4335063,25.9320368 20.439033,25.9542332 20.439033,25.9742099 L20.439033,34.8483247 L20.4379277,34.8483247 Z M21.0060777,35.8116478 L20.9640744,35.7383997 L21.0480811,35.7383997 L21.0060777,35.8116478 Z M39.7915067,33.6008879 C39.7915067,34.4254836 39.1415607,35.5497305 38.4297151,35.9592538 L32.3204438,39.4662826 C31.6041767,39.8780256 30.295442,39.8780256 29.5791749,39.4662826 L21.5499101,34.8583131 L21.543278,34.8694113 L21.543278,25.9930768 C21.543278,25.9664412 21.5488048,25.9386957 21.5499101,25.91206 C22.4938793,25.6623507 23.1968821,24.8088997 23.2013035,23.7823169 C23.2024089,23.57922 23.1670376,23.3872212 23.1172969,23.1996618 C23.1405092,23.1852341 23.1615109,23.1663672 23.1847233,23.1530494 L30.4844569,18.9634817 L30.4015556,19.108868 L38.4308204,23.7168375 C39.1437714,24.1263608 39.792612,25.2494979 39.792612,26.0752035 L39.792612,33.6008879 L39.7915067,33.6008879 Z" id="Shape" fill="#060001" fill-rule="nonzero"></path>
                <circle id="Oval-10" fill="#E41F2B" cx="21" cy="23.5" r="3"></circle>
            </g>
        </g>
    </g>
</svg>