<?xml version="1.0" encoding="UTF-8"?>
<svg width="48px" height="48px" viewBox="0 0 48 48" version="1.1" xmlns="http://www.w3.org/2000/svg" xmlns:xlink="http://www.w3.org/1999/xlink">
    <!-- Generator: Sketch 47.1 (45422) - http://www.bohemiancoding.com/sketch -->
    <title>官方微信</title>
    <desc>Created with Sketch.</desc>
    <defs></defs>
    <g id="Page-1" stroke="none" stroke-width="1" fill="none" fill-rule="evenodd">
        <g id="导航-copy" transform="translate(-254.000000, -2863.000000)">
            <g id="页尾" transform="translate(156.000000, 2316.000000)">
                <g id="Group-9">
                    <g>
                        <g id="Group-11" transform="translate(98.000000, 478.000000)">
                            <g id="Group-27">
                                <g id="Group-8">
                                    <g id="Group-14" transform="translate(0.000000, 69.000000)">
                                        <circle id="Oval-Copy-2" stroke="#979797" stroke-width="1.5" cx="24" cy="24" r="23.25"></circle>
                                        <path d="M28.8798972,20.1452715 C29.1659848,20.1452715 29.4490308,20.1662633 29.729849,20.1975367 C28.9662205,16.6418336 25.1645711,14 20.8252758,14 C15.9739531,14 12,17.3066295 12,21.5054943 C12,23.929185 13.3220521,25.9194602 15.5314555,27.4631681 L14.6487737,30.1179394 L17.7339188,28.5708901 C18.8378709,28.7893756 19.7235515,29.0140302 20.825233,29.0140302 C21.1021528,29.0140302 21.376802,29.0003213 21.6490522,28.9789012 C21.4766628,28.3889044 21.3767592,27.7709329 21.3767592,27.1297419 C21.3767592,23.2741994 24.6878013,20.1452715 28.8798972,20.1452715 L28.8798972,20.1452715 Z M24.1347328,17.7525115 C24.7992718,17.7525115 25.239456,18.1896541 25.239456,18.8537218 C25.239456,19.5151762 24.7992289,19.9584021 24.1347328,19.9584021 C23.4732784,19.9584021 22.8095534,19.5151334 22.8095534,18.8537218 C22.8095534,18.1896969 23.4733212,17.7525115 24.1347328,17.7525115 Z M17.9582307,19.9583592 C17.296862,19.9583592 16.6293242,19.5151334 16.6293242,18.8537218 C16.6293242,18.1896969 17.2968191,17.7525115 17.9582307,17.7525115 C18.6196851,17.7525115 19.0599122,18.1896541 19.0599122,18.8537218 C19.0599122,19.5151762 18.6196851,19.9584021 17.9582307,19.9584021 L17.9582307,19.9583592 Z M36.93469,27.0237122 C36.93469,23.495384 33.40392,20.6194281 29.4384492,20.6194281 C25.239456,20.6194281 21.9322695,23.4954268 21.9322695,27.0237122 C21.9322695,30.558038 25.239456,33.4279962 29.4384492,33.4279962 C30.3173183,33.4279962 31.20377,33.2063833 32.086409,32.9851559 L34.5071009,34.3106352 L33.8433759,32.1052587 C35.6148657,30.7762665 36.9347329,29.0139874 36.9347329,27.0237122 L36.93469,27.0237122 Z M27.0047339,25.9194174 C26.5653208,25.9194174 26.1220949,25.4822749 26.1220949,25.0363929 C26.1220949,24.5966371 26.5653208,24.1538824 27.0047767,24.1538824 C27.6723145,24.1538824 28.109457,24.5966799 28.109457,25.0363929 C28.109457,25.4822749 27.6722717,25.9194174 27.0047767,25.9194174 L27.0047339,25.9194174 Z M31.8590983,25.9194174 C31.4227268,25.9194174 30.9824998,25.4822749 30.9824998,25.0363929 C30.9824998,24.5966371 31.4227268,24.1538824 31.8590983,24.1538824 C32.5205527,24.1538824 32.9637357,24.5966799 32.9637357,25.0363929 C32.9637357,25.4822749 32.5205527,25.9194174 31.8590983,25.9194174 Z" id="Shape" fill="#999999" fill-rule="nonzero"></path>
                                    </g>
                                </g>
                                <g id="电话icon" transform="translate(15.000000, 42.000000)"></g>
                                <g id="电话icon-copy" transform="translate(0.000000, 69.000000)"></g>
                            </g>
                        </g>
                    </g>
                </g>
            </g>
        </g>
    </g>
</svg>