<?xml version="1.0" encoding="utf-8"?>
<!-- Generator: Adobe Illustrator 16.0.0, SVG Export Plug-In . SVG Version: 6.00 Build 0)  -->
<!DOCTYPE svg PUBLIC "-//W3C//DTD SVG 1.1//EN" "http://www.w3.org/Graphics/SVG/1.1/DTD/svg11.dtd">
<svg version="1.1" id="图层_1" xmlns="http://www.w3.org/2000/svg" xmlns:xlink="http://www.w3.org/1999/xlink" x="0px" y="0px"
	 width="612px" height="792px" viewBox="0 0 612 792" enable-background="new 0 0 612 792" xml:space="preserve">
<polygon fill="#F66F6A" points="22.076,258.201 19.826,260.45 20.201,260.825 22.826,258.201 20.201,255.576 19.826,255.951 "/>
<path fill="#F66F6A" d="M19.782,237.782c-0.273,0.272-0.273,0.682,0,0.955l2.865,2.866l-2.865,2.865
	c-0.273,0.273-0.273,0.683,0,0.955c0.273,0.273,0.682,0.273,0.955,0l3.343-3.343c0.273-0.273,0.273-0.683,0-0.956l-3.343-3.343
	C20.464,237.577,20.055,237.577,19.782,237.782z"/>
<path fill="#FFFFFF" d="M40.087,242.708c0.273,0.273,0.683,0.273,0.956,0l2.865-2.867l2.866,2.867c0.273,0.273,0.683,0.273,0.955,0
	c0.273-0.273,0.273-0.683,0-0.955l-3.343-3.343c-0.273-0.273-0.683-0.273-0.956,0l-3.343,3.343
	C39.883,242.024,39.883,242.435,40.087,242.708z"/>
<path fill="#FFFFFF" d="M68.069,240.604c-0.272-0.273-0.682-0.273-0.955,0l-2.865,2.865l-2.866-2.865
	c-0.273-0.273-0.683-0.273-0.955,0c-0.273,0.272-0.273,0.682,0,0.955l3.343,3.343c0.273,0.273,0.683,0.273,0.956,0l3.343-3.343
	C68.274,241.286,68.274,240.877,68.069,240.604z"/>
</svg>
